<mxfile host="www.draw.io" modified="2020-03-09T11:21:07.940Z" agent="Mozilla/5.0 (Macintosh; Intel Mac OS X 10_14_6) AppleWebKit/537.36 (KHTML, like Gecko) Chrome/80.0.3987.122 Safari/537.36" etag="zBQ5PrebzTQmI7IWLQDF" version="12.8.1" type="github">
  <diagram id="99Jsib-GlQydPkxzlcE-" name="Page-1">
    <mxGraphModel dx="1186" dy="741" grid="1" gridSize="10" guides="1" tooltips="1" connect="1" arrows="1" fold="1" page="1" pageScale="1" pageWidth="827" pageHeight="1169" math="0" shadow="0">
      <root>
        <mxCell id="0" />
        <mxCell id="1" parent="0" />
        <mxCell id="yoTLzZ-twQO9q5vi9v_X-26" style="edgeStyle=orthogonalEdgeStyle;rounded=0;orthogonalLoop=1;jettySize=auto;html=1;exitX=1;exitY=0.25;exitDx=0;exitDy=0;entryX=0;entryY=0.25;entryDx=0;entryDy=0;" parent="1" source="yoTLzZ-twQO9q5vi9v_X-2" target="yoTLzZ-twQO9q5vi9v_X-4" edge="1">
          <mxGeometry relative="1" as="geometry" />
        </mxCell>
        <mxCell id="yoTLzZ-twQO9q5vi9v_X-2" value="" style="rounded=0;whiteSpace=wrap;html=1;" parent="1" vertex="1">
          <mxGeometry x="40" y="120" width="100" height="260" as="geometry" />
        </mxCell>
        <mxCell id="yoTLzZ-twQO9q5vi9v_X-3" value="Browser" style="text;html=1;strokeColor=none;fillColor=none;align=center;verticalAlign=middle;whiteSpace=wrap;rounded=0;" parent="1" vertex="1">
          <mxGeometry x="65" y="245" width="50" height="20" as="geometry" />
        </mxCell>
        <mxCell id="yoTLzZ-twQO9q5vi9v_X-4" value="TLB&lt;br&gt;/pages/" style="rounded=0;whiteSpace=wrap;html=1;" parent="1" vertex="1">
          <mxGeometry x="200" y="120" width="100" height="260" as="geometry" />
        </mxCell>
        <mxCell id="yoTLzZ-twQO9q5vi9v_X-5" value="" style="rounded=0;whiteSpace=wrap;html=1;" parent="1" vertex="1">
          <mxGeometry x="380" y="120" width="260" height="260" as="geometry" />
        </mxCell>
        <mxCell id="yoTLzZ-twQO9q5vi9v_X-6" value="adweb" style="text;html=1;strokeColor=none;fillColor=none;align=center;verticalAlign=middle;whiteSpace=wrap;rounded=0;" parent="1" vertex="1">
          <mxGeometry x="460" y="90" width="90" height="20" as="geometry" />
        </mxCell>
        <mxCell id="yoTLzZ-twQO9q5vi9v_X-14" style="edgeStyle=orthogonalEdgeStyle;rounded=0;orthogonalLoop=1;jettySize=auto;html=1;exitX=0.5;exitY=1;exitDx=0;exitDy=0;entryX=0.5;entryY=0;entryDx=0;entryDy=0;" parent="1" source="yoTLzZ-twQO9q5vi9v_X-8" target="yoTLzZ-twQO9q5vi9v_X-13" edge="1">
          <mxGeometry relative="1" as="geometry" />
        </mxCell>
        <mxCell id="yoTLzZ-twQO9q5vi9v_X-8" value="Controller" style="rounded=0;whiteSpace=wrap;html=1;" parent="1" vertex="1">
          <mxGeometry x="460" y="159" width="140" height="40" as="geometry" />
        </mxCell>
        <mxCell id="yoTLzZ-twQO9q5vi9v_X-12" value="context" style="shape=tape;whiteSpace=wrap;html=1;size=0.18;fillColor=#f8cecc;strokeColor=#b85450;" parent="1" vertex="1">
          <mxGeometry x="540" y="227.5" width="80" height="50" as="geometry" />
        </mxCell>
        <mxCell id="yoTLzZ-twQO9q5vi9v_X-13" value="View Render" style="rounded=0;whiteSpace=wrap;html=1;fillColor=#dae8fc;strokeColor=#6c8ebf;" parent="1" vertex="1">
          <mxGeometry x="460" y="302" width="140" height="40" as="geometry" />
        </mxCell>
        <mxCell id="yoTLzZ-twQO9q5vi9v_X-21" style="edgeStyle=orthogonalEdgeStyle;rounded=0;orthogonalLoop=1;jettySize=auto;html=1;exitX=0.5;exitY=1;exitDx=0;exitDy=0;exitPerimeter=0;" parent="1" source="yoTLzZ-twQO9q5vi9v_X-16" edge="1">
          <mxGeometry relative="1" as="geometry">
            <mxPoint x="478" y="303" as="targetPoint" />
          </mxGeometry>
        </mxCell>
        <mxCell id="yoTLzZ-twQO9q5vi9v_X-16" value="Template&amp;nbsp;" style="shape=note;whiteSpace=wrap;html=1;backgroundOutline=1;darkOpacity=0.05;size=18;fillColor=#dae8fc;strokeColor=#6c8ebf;" parent="1" vertex="1">
          <mxGeometry x="440" y="230.75" width="80" height="39.25" as="geometry" />
        </mxCell>
        <mxCell id="yoTLzZ-twQO9q5vi9v_X-29" value="Mid&lt;br&gt;ware" style="rounded=0;whiteSpace=wrap;html=1;dashed=1;" parent="1" vertex="1">
          <mxGeometry x="392" y="149" width="40" height="211" as="geometry" />
        </mxCell>
        <mxCell id="yoTLzZ-twQO9q5vi9v_X-20" style="edgeStyle=orthogonalEdgeStyle;rounded=0;orthogonalLoop=1;jettySize=auto;html=1;exitX=0;exitY=0.5;exitDx=0;exitDy=0;" parent="1" source="yoTLzZ-twQO9q5vi9v_X-13" edge="1">
          <mxGeometry relative="1" as="geometry">
            <mxPoint x="142" y="322" as="targetPoint" />
          </mxGeometry>
        </mxCell>
        <mxCell id="yoTLzZ-twQO9q5vi9v_X-18" style="edgeStyle=orthogonalEdgeStyle;rounded=0;orthogonalLoop=1;jettySize=auto;html=1;entryX=0;entryY=0.5;entryDx=0;entryDy=0;exitX=1.02;exitY=0.227;exitDx=0;exitDy=0;exitPerimeter=0;" parent="1" source="yoTLzZ-twQO9q5vi9v_X-4" target="yoTLzZ-twQO9q5vi9v_X-8" edge="1">
          <mxGeometry relative="1" as="geometry">
            <mxPoint x="341" y="180" as="sourcePoint" />
          </mxGeometry>
        </mxCell>
        <mxCell id="yoTLzZ-twQO9q5vi9v_X-30" value="Html" style="shape=note;whiteSpace=wrap;html=1;backgroundOutline=1;darkOpacity=0.05;size=18;" parent="1" vertex="1">
          <mxGeometry x="310" y="280" width="62" height="37.5" as="geometry" />
        </mxCell>
        <mxCell id="yoTLzZ-twQO9q5vi9v_X-32" style="edgeStyle=orthogonalEdgeStyle;rounded=0;orthogonalLoop=1;jettySize=auto;html=1;exitX=0.5;exitY=1;exitDx=0;exitDy=0;entryX=0.5;entryY=0;entryDx=0;entryDy=0;dashed=1;" parent="1" source="yoTLzZ-twQO9q5vi9v_X-31" target="yoTLzZ-twQO9q5vi9v_X-29" edge="1">
          <mxGeometry relative="1" as="geometry" />
        </mxCell>
        <mxCell id="yoTLzZ-twQO9q5vi9v_X-31" value="Auth" style="rounded=0;whiteSpace=wrap;html=1;" parent="1" vertex="1">
          <mxGeometry x="377" y="40" width="70" height="40" as="geometry" />
        </mxCell>
        <mxCell id="yoTLzZ-twQO9q5vi9v_X-33" style="edgeStyle=orthogonalEdgeStyle;rounded=0;orthogonalLoop=1;jettySize=auto;html=1;exitX=1;exitY=0.25;exitDx=0;exitDy=0;entryX=0;entryY=0.25;entryDx=0;entryDy=0;" parent="1" source="yoTLzZ-twQO9q5vi9v_X-34" target="yoTLzZ-twQO9q5vi9v_X-36" edge="1">
          <mxGeometry relative="1" as="geometry" />
        </mxCell>
        <mxCell id="yoTLzZ-twQO9q5vi9v_X-34" value="" style="rounded=0;whiteSpace=wrap;html=1;" parent="1" vertex="1">
          <mxGeometry x="41" y="590" width="100" height="260" as="geometry" />
        </mxCell>
        <mxCell id="yoTLzZ-twQO9q5vi9v_X-35" value="Browser" style="text;html=1;strokeColor=none;fillColor=none;align=center;verticalAlign=middle;whiteSpace=wrap;rounded=0;" parent="1" vertex="1">
          <mxGeometry x="66" y="715" width="50" height="20" as="geometry" />
        </mxCell>
        <mxCell id="yoTLzZ-twQO9q5vi9v_X-36" value="TLB&lt;br&gt;/pages/" style="rounded=0;whiteSpace=wrap;html=1;" parent="1" vertex="1">
          <mxGeometry x="201" y="590" width="100" height="260" as="geometry" />
        </mxCell>
        <mxCell id="yoTLzZ-twQO9q5vi9v_X-37" value="" style="rounded=0;whiteSpace=wrap;html=1;" parent="1" vertex="1">
          <mxGeometry x="673" y="590" width="260" height="260" as="geometry" />
        </mxCell>
        <mxCell id="yoTLzZ-twQO9q5vi9v_X-38" value="adweb" style="text;html=1;strokeColor=none;fillColor=none;align=center;verticalAlign=middle;whiteSpace=wrap;rounded=0;" parent="1" vertex="1">
          <mxGeometry x="753" y="560" width="90" height="20" as="geometry" />
        </mxCell>
        <mxCell id="yoTLzZ-twQO9q5vi9v_X-40" value="API" style="rounded=0;whiteSpace=wrap;html=1;" parent="1" vertex="1">
          <mxGeometry x="753" y="633" width="140" height="40" as="geometry" />
        </mxCell>
        <mxCell id="yoTLzZ-twQO9q5vi9v_X-41" value="context" style="shape=tape;whiteSpace=wrap;html=1;size=0.18;fillColor=#f8cecc;strokeColor=#b85450;" parent="1" vertex="1">
          <mxGeometry x="830" y="710" width="80" height="50" as="geometry" />
        </mxCell>
        <mxCell id="yoTLzZ-twQO9q5vi9v_X-45" value="Mid&lt;br&gt;ware" style="rounded=0;whiteSpace=wrap;html=1;dashed=1;" parent="1" vertex="1">
          <mxGeometry x="685" y="619" width="40" height="211" as="geometry" />
        </mxCell>
        <mxCell id="yoTLzZ-twQO9q5vi9v_X-49" style="edgeStyle=orthogonalEdgeStyle;rounded=0;orthogonalLoop=1;jettySize=auto;html=1;exitX=0.5;exitY=1;exitDx=0;exitDy=0;entryX=0.5;entryY=0;entryDx=0;entryDy=0;dashed=1;" parent="1" source="yoTLzZ-twQO9q5vi9v_X-50" target="yoTLzZ-twQO9q5vi9v_X-45" edge="1">
          <mxGeometry relative="1" as="geometry" />
        </mxCell>
        <mxCell id="yoTLzZ-twQO9q5vi9v_X-50" value="Auth" style="rounded=0;whiteSpace=wrap;html=1;" parent="1" vertex="1">
          <mxGeometry x="670" y="510" width="70" height="40" as="geometry" />
        </mxCell>
        <mxCell id="yoTLzZ-twQO9q5vi9v_X-51" value="" style="rounded=0;whiteSpace=wrap;html=1;" parent="1" vertex="1">
          <mxGeometry x="390" y="590" width="164" height="260" as="geometry" />
        </mxCell>
        <mxCell id="yoTLzZ-twQO9q5vi9v_X-52" value="Node" style="text;html=1;strokeColor=none;fillColor=none;align=center;verticalAlign=middle;whiteSpace=wrap;rounded=0;" parent="1" vertex="1">
          <mxGeometry x="435" y="557.5" width="90" height="20" as="geometry" />
        </mxCell>
        <mxCell id="yoTLzZ-twQO9q5vi9v_X-64" style="edgeStyle=orthogonalEdgeStyle;rounded=0;orthogonalLoop=1;jettySize=auto;html=1;exitX=0;exitY=0.5;exitDx=0;exitDy=0;entryX=0.99;entryY=0.808;entryDx=0;entryDy=0;entryPerimeter=0;exitPerimeter=0;" parent="1" target="yoTLzZ-twQO9q5vi9v_X-34" edge="1">
          <mxGeometry relative="1" as="geometry">
            <mxPoint x="440" y="799.375" as="sourcePoint" />
          </mxGeometry>
        </mxCell>
        <mxCell id="yoTLzZ-twQO9q5vi9v_X-57" value="Html" style="shape=note;whiteSpace=wrap;html=1;backgroundOutline=1;darkOpacity=0.05;size=18;" parent="1" vertex="1">
          <mxGeometry x="318" y="747.5" width="62" height="37.5" as="geometry" />
        </mxCell>
        <mxCell id="yoTLzZ-twQO9q5vi9v_X-60" style="edgeStyle=orthogonalEdgeStyle;rounded=0;orthogonalLoop=1;jettySize=auto;html=1;exitX=0.5;exitY=1;exitDx=0;exitDy=0;entryX=1;entryY=0.5;entryDx=0;entryDy=0;" parent="1" source="yoTLzZ-twQO9q5vi9v_X-40" target="yoTLzZ-twQO9q5vi9v_X-70" edge="1">
          <mxGeometry relative="1" as="geometry">
            <mxPoint x="520" y="808.375" as="targetPoint" />
          </mxGeometry>
        </mxCell>
        <mxCell id="yoTLzZ-twQO9q5vi9v_X-67" style="edgeStyle=orthogonalEdgeStyle;rounded=0;orthogonalLoop=1;jettySize=auto;html=1;exitX=1;exitY=0.25;exitDx=0;exitDy=0;" parent="1" source="yoTLzZ-twQO9q5vi9v_X-36" edge="1">
          <mxGeometry relative="1" as="geometry">
            <mxPoint x="390" y="655" as="targetPoint" />
          </mxGeometry>
        </mxCell>
        <mxCell id="yoTLzZ-twQO9q5vi9v_X-77" style="edgeStyle=none;rounded=0;orthogonalLoop=1;jettySize=auto;html=1;exitX=1;exitY=0.25;exitDx=0;exitDy=0;entryX=0;entryY=0.5;entryDx=0;entryDy=0;" parent="1" source="yoTLzZ-twQO9q5vi9v_X-51" target="yoTLzZ-twQO9q5vi9v_X-40" edge="1">
          <mxGeometry relative="1" as="geometry" />
        </mxCell>
        <mxCell id="yoTLzZ-twQO9q5vi9v_X-70" value="View Render" style="rounded=0;whiteSpace=wrap;html=1;fillColor=#dae8fc;strokeColor=#6c8ebf;" parent="1" vertex="1">
          <mxGeometry x="423" y="780" width="98" height="40" as="geometry" />
        </mxCell>
        <mxCell id="yoTLzZ-twQO9q5vi9v_X-76" style="edgeStyle=none;rounded=0;orthogonalLoop=1;jettySize=auto;html=1;exitX=0.5;exitY=1;exitDx=0;exitDy=0;exitPerimeter=0;entryX=0.5;entryY=0;entryDx=0;entryDy=0;" parent="1" source="yoTLzZ-twQO9q5vi9v_X-71" target="yoTLzZ-twQO9q5vi9v_X-70" edge="1">
          <mxGeometry relative="1" as="geometry" />
        </mxCell>
        <mxCell id="yoTLzZ-twQO9q5vi9v_X-71" value="Template&amp;nbsp;" style="shape=note;whiteSpace=wrap;html=1;backgroundOutline=1;darkOpacity=0.05;size=18;fillColor=#dae8fc;strokeColor=#6c8ebf;" parent="1" vertex="1">
          <mxGeometry x="432" y="704.88" width="80" height="39.25" as="geometry" />
        </mxCell>
        <mxCell id="yoTLzZ-twQO9q5vi9v_X-75" style="edgeStyle=none;rounded=0;orthogonalLoop=1;jettySize=auto;html=1;exitX=0;exitY=0.5;exitDx=0;exitDy=0;" parent="1" source="yoTLzZ-twQO9q5vi9v_X-70" target="yoTLzZ-twQO9q5vi9v_X-70" edge="1">
          <mxGeometry relative="1" as="geometry" />
        </mxCell>
        <mxCell id="yoTLzZ-twQO9q5vi9v_X-78" value="" style="rounded=0;whiteSpace=wrap;html=1;" parent="1" vertex="1">
          <mxGeometry x="670" y="900" width="270" height="140" as="geometry" />
        </mxCell>
        <mxCell id="yoTLzZ-twQO9q5vi9v_X-79" value="oe site" style="text;html=1;strokeColor=none;fillColor=none;align=center;verticalAlign=middle;whiteSpace=wrap;rounded=0;" parent="1" vertex="1">
          <mxGeometry x="760" y="872" width="90" height="20" as="geometry" />
        </mxCell>
        <mxCell id="yoTLzZ-twQO9q5vi9v_X-85" style="edgeStyle=orthogonalEdgeStyle;rounded=0;orthogonalLoop=1;jettySize=auto;html=1;exitX=0;exitY=0.5;exitDx=0;exitDy=0;entryX=0.5;entryY=1;entryDx=0;entryDy=0;dashed=1;strokeWidth=1;" parent="1" source="yoTLzZ-twQO9q5vi9v_X-80" target="yoTLzZ-twQO9q5vi9v_X-70" edge="1">
          <mxGeometry relative="1" as="geometry" />
        </mxCell>
        <mxCell id="yoTLzZ-twQO9q5vi9v_X-80" value="API" style="rounded=0;whiteSpace=wrap;html=1;" parent="1" vertex="1">
          <mxGeometry x="740" y="920" width="140" height="40" as="geometry" />
        </mxCell>
        <mxCell id="yoTLzZ-twQO9q5vi9v_X-81" value="context" style="shape=tape;whiteSpace=wrap;html=1;size=0.18;fillColor=#f8cecc;strokeColor=#b85450;" parent="1" vertex="1">
          <mxGeometry x="690" y="970" width="80" height="50" as="geometry" />
        </mxCell>
        <mxCell id="yoTLzZ-twQO9q5vi9v_X-84" style="edgeStyle=none;rounded=0;orthogonalLoop=1;jettySize=auto;html=1;exitX=1;exitY=0.25;exitDx=0;exitDy=0;entryX=0;entryY=0;entryDx=0;entryDy=0;dashed=1;strokeWidth=1;" parent="1" source="yoTLzZ-twQO9q5vi9v_X-51" target="yoTLzZ-twQO9q5vi9v_X-80" edge="1">
          <mxGeometry relative="1" as="geometry" />
        </mxCell>
        <mxCell id="yoTLzZ-twQO9q5vi9v_X-87" value="Router" style="rounded=0;whiteSpace=wrap;html=1;" parent="1" vertex="1">
          <mxGeometry x="414" y="633" width="120" height="40" as="geometry" />
        </mxCell>
        <mxCell id="yoTLzZ-twQO9q5vi9v_X-88" value="SDK" style="ellipse;whiteSpace=wrap;html=1;aspect=fixed;" parent="1" vertex="1">
          <mxGeometry x="500" y="680" width="40" height="40" as="geometry" />
        </mxCell>
        <mxCell id="yoTLzZ-twQO9q5vi9v_X-89" style="rounded=0;orthogonalLoop=1;jettySize=auto;html=1;exitX=0.5;exitY=1;exitDx=0;exitDy=0;entryX=1;entryY=0;entryDx=0;entryDy=0;dashed=1;" parent="1" source="yoTLzZ-twQO9q5vi9v_X-50" target="yoTLzZ-twQO9q5vi9v_X-88" edge="1">
          <mxGeometry relative="1" as="geometry">
            <mxPoint x="715" y="560" as="sourcePoint" />
            <mxPoint x="715" y="629" as="targetPoint" />
          </mxGeometry>
        </mxCell>
        <mxCell id="hkJyN_X5DFE82c2p9yGc-1" style="edgeStyle=orthogonalEdgeStyle;rounded=0;orthogonalLoop=1;jettySize=auto;html=1;exitX=1;exitY=0.25;exitDx=0;exitDy=0;entryX=0;entryY=0.25;entryDx=0;entryDy=0;" edge="1" parent="1" source="hkJyN_X5DFE82c2p9yGc-2" target="hkJyN_X5DFE82c2p9yGc-4">
          <mxGeometry relative="1" as="geometry" />
        </mxCell>
        <mxCell id="hkJyN_X5DFE82c2p9yGc-2" value="" style="rounded=0;whiteSpace=wrap;html=1;" vertex="1" parent="1">
          <mxGeometry x="30.5" y="1190" width="100" height="260" as="geometry" />
        </mxCell>
        <mxCell id="hkJyN_X5DFE82c2p9yGc-3" value="Browser" style="text;html=1;strokeColor=none;fillColor=none;align=center;verticalAlign=middle;whiteSpace=wrap;rounded=0;" vertex="1" parent="1">
          <mxGeometry x="55.5" y="1315" width="50" height="20" as="geometry" />
        </mxCell>
        <mxCell id="hkJyN_X5DFE82c2p9yGc-4" value="TLB&lt;br&gt;/pages/" style="rounded=0;whiteSpace=wrap;html=1;" vertex="1" parent="1">
          <mxGeometry x="190.5" y="1190" width="100" height="260" as="geometry" />
        </mxCell>
        <mxCell id="hkJyN_X5DFE82c2p9yGc-5" value="" style="rounded=0;whiteSpace=wrap;html=1;" vertex="1" parent="1">
          <mxGeometry x="662.5" y="1190" width="260" height="260" as="geometry" />
        </mxCell>
        <mxCell id="hkJyN_X5DFE82c2p9yGc-6" value="adweb" style="text;html=1;strokeColor=none;fillColor=none;align=center;verticalAlign=middle;whiteSpace=wrap;rounded=0;" vertex="1" parent="1">
          <mxGeometry x="742.5" y="1160" width="90" height="20" as="geometry" />
        </mxCell>
        <mxCell id="hkJyN_X5DFE82c2p9yGc-7" value="API" style="rounded=0;whiteSpace=wrap;html=1;" vertex="1" parent="1">
          <mxGeometry x="742.5" y="1233" width="140" height="40" as="geometry" />
        </mxCell>
        <mxCell id="hkJyN_X5DFE82c2p9yGc-8" value="context" style="shape=tape;whiteSpace=wrap;html=1;size=0.18;fillColor=#f8cecc;strokeColor=#b85450;" vertex="1" parent="1">
          <mxGeometry x="819.5" y="1310" width="80" height="50" as="geometry" />
        </mxCell>
        <mxCell id="hkJyN_X5DFE82c2p9yGc-9" value="Mid&lt;br&gt;ware" style="rounded=0;whiteSpace=wrap;html=1;dashed=1;" vertex="1" parent="1">
          <mxGeometry x="674.5" y="1219" width="40" height="211" as="geometry" />
        </mxCell>
        <mxCell id="hkJyN_X5DFE82c2p9yGc-10" style="edgeStyle=orthogonalEdgeStyle;rounded=0;orthogonalLoop=1;jettySize=auto;html=1;exitX=0.5;exitY=1;exitDx=0;exitDy=0;entryX=0.5;entryY=0;entryDx=0;entryDy=0;dashed=1;" edge="1" parent="1" source="hkJyN_X5DFE82c2p9yGc-11" target="hkJyN_X5DFE82c2p9yGc-9">
          <mxGeometry relative="1" as="geometry" />
        </mxCell>
        <mxCell id="hkJyN_X5DFE82c2p9yGc-11" value="Auth" style="rounded=0;whiteSpace=wrap;html=1;" vertex="1" parent="1">
          <mxGeometry x="659.5" y="1110" width="70" height="40" as="geometry" />
        </mxCell>
        <mxCell id="hkJyN_X5DFE82c2p9yGc-12" value="" style="rounded=0;whiteSpace=wrap;html=1;" vertex="1" parent="1">
          <mxGeometry x="379.5" y="1190" width="164" height="260" as="geometry" />
        </mxCell>
        <mxCell id="hkJyN_X5DFE82c2p9yGc-13" value="Node" style="text;html=1;strokeColor=none;fillColor=none;align=center;verticalAlign=middle;whiteSpace=wrap;rounded=0;" vertex="1" parent="1">
          <mxGeometry x="424.5" y="1157.5" width="90" height="20" as="geometry" />
        </mxCell>
        <mxCell id="hkJyN_X5DFE82c2p9yGc-14" style="edgeStyle=orthogonalEdgeStyle;rounded=0;orthogonalLoop=1;jettySize=auto;html=1;exitX=0;exitY=0.5;exitDx=0;exitDy=0;entryX=0.99;entryY=0.808;entryDx=0;entryDy=0;entryPerimeter=0;exitPerimeter=0;" edge="1" parent="1" target="hkJyN_X5DFE82c2p9yGc-2">
          <mxGeometry relative="1" as="geometry">
            <mxPoint x="429.5" y="1399.375" as="sourcePoint" />
          </mxGeometry>
        </mxCell>
        <mxCell id="hkJyN_X5DFE82c2p9yGc-15" value="Html" style="shape=note;whiteSpace=wrap;html=1;backgroundOutline=1;darkOpacity=0.05;size=18;" vertex="1" parent="1">
          <mxGeometry x="307.5" y="1347.5" width="62" height="37.5" as="geometry" />
        </mxCell>
        <mxCell id="hkJyN_X5DFE82c2p9yGc-16" style="edgeStyle=orthogonalEdgeStyle;rounded=0;orthogonalLoop=1;jettySize=auto;html=1;exitX=0.5;exitY=1;exitDx=0;exitDy=0;entryX=1;entryY=0.5;entryDx=0;entryDy=0;" edge="1" parent="1" source="hkJyN_X5DFE82c2p9yGc-7" target="hkJyN_X5DFE82c2p9yGc-19">
          <mxGeometry relative="1" as="geometry">
            <mxPoint x="509.5" y="1408.375" as="targetPoint" />
          </mxGeometry>
        </mxCell>
        <mxCell id="hkJyN_X5DFE82c2p9yGc-17" style="edgeStyle=orthogonalEdgeStyle;rounded=0;orthogonalLoop=1;jettySize=auto;html=1;exitX=1;exitY=0.25;exitDx=0;exitDy=0;" edge="1" parent="1" source="hkJyN_X5DFE82c2p9yGc-4">
          <mxGeometry relative="1" as="geometry">
            <mxPoint x="379.5" y="1255" as="targetPoint" />
          </mxGeometry>
        </mxCell>
        <mxCell id="hkJyN_X5DFE82c2p9yGc-18" style="edgeStyle=none;rounded=0;orthogonalLoop=1;jettySize=auto;html=1;exitX=1;exitY=0.25;exitDx=0;exitDy=0;entryX=0;entryY=0.5;entryDx=0;entryDy=0;" edge="1" parent="1" source="hkJyN_X5DFE82c2p9yGc-12" target="hkJyN_X5DFE82c2p9yGc-7">
          <mxGeometry relative="1" as="geometry" />
        </mxCell>
        <mxCell id="hkJyN_X5DFE82c2p9yGc-19" value="View Render" style="rounded=0;whiteSpace=wrap;html=1;fillColor=#dae8fc;strokeColor=#6c8ebf;" vertex="1" parent="1">
          <mxGeometry x="412.5" y="1380" width="98" height="40" as="geometry" />
        </mxCell>
        <mxCell id="hkJyN_X5DFE82c2p9yGc-20" style="edgeStyle=none;rounded=0;orthogonalLoop=1;jettySize=auto;html=1;exitX=0.5;exitY=1;exitDx=0;exitDy=0;exitPerimeter=0;entryX=0.5;entryY=0;entryDx=0;entryDy=0;" edge="1" parent="1" source="hkJyN_X5DFE82c2p9yGc-21" target="hkJyN_X5DFE82c2p9yGc-19">
          <mxGeometry relative="1" as="geometry" />
        </mxCell>
        <mxCell id="hkJyN_X5DFE82c2p9yGc-21" value="Template&amp;nbsp;" style="shape=note;whiteSpace=wrap;html=1;backgroundOutline=1;darkOpacity=0.05;size=18;fillColor=#dae8fc;strokeColor=#6c8ebf;" vertex="1" parent="1">
          <mxGeometry x="421.5" y="1304.88" width="80" height="39.25" as="geometry" />
        </mxCell>
        <mxCell id="hkJyN_X5DFE82c2p9yGc-22" style="edgeStyle=none;rounded=0;orthogonalLoop=1;jettySize=auto;html=1;exitX=0;exitY=0.5;exitDx=0;exitDy=0;" edge="1" parent="1" source="hkJyN_X5DFE82c2p9yGc-19" target="hkJyN_X5DFE82c2p9yGc-19">
          <mxGeometry relative="1" as="geometry" />
        </mxCell>
        <mxCell id="hkJyN_X5DFE82c2p9yGc-23" value="" style="rounded=0;whiteSpace=wrap;html=1;" vertex="1" parent="1">
          <mxGeometry x="659.5" y="1500" width="270" height="140" as="geometry" />
        </mxCell>
        <mxCell id="hkJyN_X5DFE82c2p9yGc-24" value="oe site" style="text;html=1;strokeColor=none;fillColor=none;align=center;verticalAlign=middle;whiteSpace=wrap;rounded=0;" vertex="1" parent="1">
          <mxGeometry x="749.5" y="1472" width="90" height="20" as="geometry" />
        </mxCell>
        <mxCell id="hkJyN_X5DFE82c2p9yGc-25" style="edgeStyle=orthogonalEdgeStyle;rounded=0;orthogonalLoop=1;jettySize=auto;html=1;exitX=0;exitY=0.5;exitDx=0;exitDy=0;entryX=0.5;entryY=1;entryDx=0;entryDy=0;dashed=1;strokeWidth=1;" edge="1" parent="1" source="hkJyN_X5DFE82c2p9yGc-26" target="hkJyN_X5DFE82c2p9yGc-19">
          <mxGeometry relative="1" as="geometry" />
        </mxCell>
        <mxCell id="hkJyN_X5DFE82c2p9yGc-26" value="API" style="rounded=0;whiteSpace=wrap;html=1;" vertex="1" parent="1">
          <mxGeometry x="729.5" y="1520" width="140" height="40" as="geometry" />
        </mxCell>
        <mxCell id="hkJyN_X5DFE82c2p9yGc-27" value="context" style="shape=tape;whiteSpace=wrap;html=1;size=0.18;fillColor=#f8cecc;strokeColor=#b85450;" vertex="1" parent="1">
          <mxGeometry x="679.5" y="1570" width="80" height="50" as="geometry" />
        </mxCell>
        <mxCell id="hkJyN_X5DFE82c2p9yGc-28" style="edgeStyle=none;rounded=0;orthogonalLoop=1;jettySize=auto;html=1;exitX=1;exitY=0.25;exitDx=0;exitDy=0;entryX=0;entryY=0;entryDx=0;entryDy=0;dashed=1;strokeWidth=1;" edge="1" parent="1" source="hkJyN_X5DFE82c2p9yGc-12" target="hkJyN_X5DFE82c2p9yGc-26">
          <mxGeometry relative="1" as="geometry" />
        </mxCell>
        <mxCell id="hkJyN_X5DFE82c2p9yGc-29" value="Router" style="rounded=0;whiteSpace=wrap;html=1;" vertex="1" parent="1">
          <mxGeometry x="403.5" y="1233" width="120" height="40" as="geometry" />
        </mxCell>
      </root>
    </mxGraphModel>
  </diagram>
</mxfile>
